# xmcd
#
# Track frame offsets: 
#        150
#        16084
#        34407
#
# Disc length: 646 seconds
#
# Revision: 2
# Processed by: cddbd v1.5.1PL0 Copyright (c) Steve Scherf et al.
# Submitted via: ExactAudioCopy v0.95b3
#
DISCID=1a028403
DTITLE=Destiny's Child - No, No, No
DYEAR=1997
DGENRE=Hip-Hop
TTITLE0=No, No, No (Part II (featuring Wyclef Jean))
TTITLE1=No, No, No (Part I)
TTITLE2=No, No, No (Part II (w/o rap))
EXTD=
EXTT0=
EXTT1=
EXTT2=
PLAYORDER=
